<?xml version="1.0" standalone="no"?>
<!DOCTYPE svg PUBLIC "-//W3C//DTD SVG 20010904//EN"
 "http://www.w3.org/TR/2001/REC-SVG-20010904/DTD/svg10.dtd">
<svg version="1.0" xmlns="http://www.w3.org/2000/svg"
 width="463.000000pt" height="463.000000pt" viewBox="0 0 463.000000 463.000000"
 preserveAspectRatio="xMidYMid meet">
<metadata>
Created by potrace 1.14, written by Peter Selinger 2001-2017
</metadata>
<g transform="translate(0.000000,463.000000) scale(0.100000,-0.100000)"
fill="#000000" stroke="none">
<path d="M2400 4555 l0 -75 -40 0 -40 0 0 -80 0 -80 40 0 40 0 0 -80 0 -80 80
0 80 0 0 40 0 40 40 0 40 0 0 80 0 80 -40 0 -40 0 0 80 0 80 -40 0 c-39 0 -40
1 -40 35 0 34 -1 35 -40 35 l-40 0 0 -75z"/>
<path d="M2720 4120 l0 -40 -40 0 -40 0 0 -40 0 -40 80 0 80 0 0 -40 0 -40 80
0 80 0 0 80 0 80 -40 0 -40 0 0 40 0 40 -80 0 -80 0 0 -40z"/>
<path d="M2400 3920 l0 -80 -40 0 -40 0 0 -40 0 -40 -40 0 -40 0 0 -80 0 -80
-80 0 -80 0 0 -40 0 -40 -80 0 -80 0 0 40 0 40 40 0 40 0 0 40 0 40 40 0 40 0
0 80 0 80 -120 0 -120 0 0 -40 0 -40 -40 0 -40 0 0 -40 0 -40 -40 0 -40 0 0
-280 0 -280 40 0 40 0 0 -40 0 -40 40 0 40 0 0 -40 0 -40 40 0 40 0 0 -40 0
-40 40 0 40 0 0 -40 0 -40 40 0 40 0 0 -80 0 -80 40 0 40 0 0 -80 0 -80 -40 0
-40 0 0 -80 0 -80 -80 0 -80 0 0 -40 0 -40 -40 0 -40 0 0 -160 0 -160 40 0 40
0 0 -80 0 -80 40 0 40 0 0 -40 0 -40 40 0 40 0 0 -40 0 -40 -280 0 -280 0 0
-360 0 -360 80 0 80 0 0 -80 0 -80 80 0 80 0 0 -240 0 -240 80 0 80 0 0 -80 0
-80 320 0 320 0 0 80 0 80 80 0 80 0 0 240 0 240 80 0 80 0 0 80 0 80 80 0 80
0 0 360 0 360 -200 0 -200 0 0 40 0 40 40 0 40 0 0 40 0 40 40 0 40 0 0 40 0
40 40 0 40 0 0 80 0 80 -40 0 -40 0 0 120 0 120 40 0 40 0 0 80 0 80 40 0 40
0 0 80 0 80 -40 0 -40 0 0 40 0 40 -40 0 -40 0 0 40 0 40 -80 0 -80 0 0 40 0
40 -80 0 -80 0 0 40 0 40 -200 0 -200 0 0 120 0 120 40 0 40 0 0 120 0 120 40
0 40 0 0 120 0 120 40 0 40 0 0 80 0 80 40 0 40 0 0 40 0 40 40 0 40 0 0 40 0
40 -40 0 -40 0 0 40 0 40 -40 0 -40 0 0 -80z"/>
</g>
</svg>
